<?xml version="1.0" standalone="no"?>
<!DOCTYPE svg PUBLIC "-//W3C//DTD SVG 1.1//EN" "http://www.w3.org/Graphics/SVG/1.1/DTD/svg11.dtd">
<svg xmlns="http://www.w3.org/2000/svg">
<metadata>Generated by Fontastic.me</metadata>
<defs>
<font id="avam" horiz-adv-x="512">
<font-face font-family="avam" units-per-em="512" ascent="480" descent="-32"/>
<missing-glyph horiz-adv-x="512" />

<glyph glyph-name="desarmado" unicode="&#97;" d="M508 190l-52 179-1 23c-3 58-84 79-115 31-10 26-36 45-65 45-26 0-50-16-62-40-1-3-6-3-8 0-36 40-102 21-111-31-1-2-3-4-4-3-34 32-90 8-90-39l0-21c0-4 3-7 8-7 4 0 7 3 7 7l0 21c0 34 40 51 65 28 10-9 26-2 28 11 8 40 58 55 86 24 9-11 27-9 33 4 9 19 28 31 48 31 24 0 45-16 51-38 4-11 19-13 25-3 22 39 87 24 89-21l8-164c0-4 4-7 8-7 4 0 7 3 7 8l-4 77 35-119c6-22 3-46-10-65l-16-23c-14-22-39-35-65-36l-101 0c-4 0-8-3-8-8 0-4 4-7 8-7 2 0-15 0 101 0 31 1 60 16 78 42l15 24c16 23 20 51 12 77z m-42-28l-1 31c0 4-4 7-8 7-4 0-7-4-7-8l1-31c0-27-24-49-53-49-30 0-54 22-54 49 0 1-2 198-2 198 0 4-4 8-8 8-4 0-7-4-7-8l2-199c0-30-26-55-57-54-28 2-50 26-50 55 0 1 0 1-4 207 0 4-3 8-7 8-4-1-8-4-8-8l4-207c0-28-24-51-53-49-26 1-47 23-47 50-1 179-1 173-1 172 0 0 0 0 0 0 0 5-4 8-8 8-4 0-7-4-7-8l1-160c0-21-17-39-38-39-22 0-39 18-39 39l0 125c0 5-3 8-7 8-5 0-8-3-8-8l0-125c0-51 64-73 96-33 13-39 58-55 92-36 1-16 8-32 19-43 24-22 49-18 61-17 4 1 7 4 6 8 0 5-4 8-8 7-5 1-28-7-48 12-20 19-14 42-14 45 4 4 7 9 9 13 26-52 100-51 124 1 12-20 35-34 61-34 40 0 70 32 68 65z"/>
<glyph glyph-name="lanza" unicode="&#98;" d="M427 417c3 0 5 1 7 3l0 0c4 4 4 10 0 14-4 4-10 4-14 0l0 0c-4-4-4-10 0-14 2-2 5-3 7-3z m82 92c-3 3-8 4-11 2l-141-70c-3-2-5-5-5-9l2-36-98-98-42-42-211-211c-4-4-4-10 0-14l28-28c2-2 5-3 7-3 3 0 6 1 7 3l351 351 36-2c0 0 0 0 0 0 4 0 8 2 9 5l70 140c2 4 1 9-2 12z m-471-485l-14 14 20 20 10-18z m31 31l-10 18 13 13 11-18z m28 28l-10 18 14 14 10-18z m29 28l-11 18 191 191 10-18z m205 205l-11 18 14 14 10-18z m28 29l-11 18 16 15 14-14z m67 27l-29 2-4 4 21 22c4 3 4 10 0 14-4 4-10 4-14 0l-21-22-5 5-2 29 108 54z"/>
<glyph glyph-name="dual-lanza" unicode="&#99;" d="M427 417c3 0 5 1 7 3l0 0c4 4 4 10 0 14-4 4-10 4-14 0l0 0c-4-4-4-10 0-14 2-2 4-3 7-3z m46-336c0 0 0 0 0 0l-28 29c0 0 0 0 0 0l-29 28c0 0 0 0 0 0l-118 118 98 98 36-2c0 0 0 0 0 0 4 0 8 2 9 5l70 141c2 3 1 8-2 11-3 3-8 4-11 2l-141-70c-3-2-5-5-5-9l2-36-98-98-98 98 2 36c0 4-2 7-5 9l-141 70c-3 2-8 1-11-2-3-3-4-8-2-11l70-141c1-3 5-5 9-5 0 0 0 0 0 0l36 2 98-98c0 0 0 0 0 0l-211-211c-4-4-4-10 0-14l28-28c2-2 5-3 7-3 3 0 5 1 7 3l211 211 126-126c0 0 0 0 0 0l56-57c0 0 0 0 0 0l29-28c2-2 4-3 7-3 2 0 5 1 7 3l28 28c4 4 4 10 0 14z m7 399l-54-108-29 2-4 4 21 22c4 4 4 10 0 14-4 4-10 4-14 0l-22-21-4 4-2 29z m-116-102l14-14-19-19-11 18z m-30-30l10-18-13-14-11 18z m-236 52l21-22-4-4-29-2-54 108 108-54-2-29-4-4-22 21c-4 4-10 4-14 0-2-2-3-5-3-7 0-3 1-5 3-7z m55-55l-19 19 7 7c0 0 0 0 0 0 0 0 0 0 0 0l7 7 16-15z m28-29l-13 14 10 18 14-14z m15-14l10 18 36-36-14-14z m-158-278l-14 14 20 20 10-18z m31 31l-10 18 13 13 11-18z m28 28l-10 18 14 14 10-18z m29 28l-11 18 191 191c0 0 0 0 0 0l10-18z m260 0l-116 117 14 14 113-113z m29-28l-14 14 10 18 14-14z m28-28l-14 13 11 18 13-13z m31-31l-16 16 10 18 20-20z m-382 410c-4 4-10 4-14 0-2-2-3-4-3-7 0-2 1-5 3-7l0 0c2-2 4-3 7-3 3 0 5 1 7 3 2 2 3 4 3 7 0 3-1 5-3 7z"/>
<glyph glyph-name="oliva" unicode="&#100;" d="M503 259c-5 3-11 5-17 6 4 2 8 5 12 9 12 12 17 30 12 47-1 4-3 7-7 7-4 2-8 2-12 2-2 0-4 0-6 0 4 3 7 7 9 11 8 15 8 34-1 49-2 3-5 5-9 5-6 0-12-1-17-3 2 4 4 8 5 13 4 17-2 35-14 47-3 3-7 3-10 2-8-2-15-6-20-12-1 3-3 5-4 7-9 15-25 24-42 24-1 0-1 0-2 0-3-1-6-3-8-6-8-15-8-34 2-49 1-2 3-5 4-7-7-2-14-7-19-12-3-3-4-7-3-10 4-12 12-22 23-28 0-1-1-2-1-3 1-13 6-25 14-34 0-1-1-2-1-3-3-12-2-25 4-36-1 0-1-1-2-2-6-11-8-23-6-36-1 0-2-1-2-1-10-9-15-21-16-33-1 0-2 0-3-1-11-6-20-15-24-27-1 0-2 0-3 0-17-3-31-16-37-32-4-13-3-26 2-38-15-4-31-6-48-6-17 0-33 2-48 6 5 12 6 25 2 38-6 16-20 29-37 32-1 0-2 0-3 0-4 12-13 21-24 27-1 1-2 1-3 1-1 12-6 24-16 33 0 0-1 1-2 1 2 13 0 25-6 36-1 1-1 2-2 2 6 11 7 24 4 36 0 1-1 2-1 3 8 9 13 21 14 34 0 1-1 2-1 3 11 6 19 16 23 28 1 3 0 7-3 10-5 5-12 10-19 12 1 2 3 5 4 7 10 15 10 34 2 49-2 3-5 5-8 6-1 0-1 0-2 0-17 0-33-9-42-24-1-2-3-4-4-7-5 6-12 10-20 12-3 1-7 1-10-2-12-12-18-30-14-47 1-5 3-9 5-13-5 2-11 3-17 3-4 0-7-2-9-5-9-15-9-34-1-49 2-4 5-8 9-11-2 0-4 0-5 0-5 0-9 0-13-2-4 0-6-3-7-7-5-17 0-35 12-47 4-4 8-7 12-9-6-1-12-3-17-6-3-2-5-5-5-9 0-17 10-34 26-42 4-2 8-4 13-5-5-3-10-6-15-11-2-2-3-6-2-9 5-17 19-30 36-34 4-1 8-1 11-1 1 0 2 0 3 0-4-4-8-9-11-14-1-4-1-7 1-10 9-15 25-23 41-23 1 0 2 0 3 0 5 0 10 1 14 3-3-5-6-11-7-17 0-3 1-7 4-9 9-8 20-12 32-12 5 0 11 1 16 2 14 5 24 16 30 29 5-2 11-3 17-4-4-4-7-8-10-13-2-5-1-11 4-14 5-2 11-1 14 4 6 12 19 19 32 19 13 0 26-7 32-19 2-3 6-5 9-5 2 0 3 1 5 1 5 3 6 9 4 14-3 5-6 9-10 13 6 1 12 2 17 4 6-13 16-24 30-29 5-1 11-2 16-2 0 0 0 0 0 0 12 0 23 4 32 12 3 2 4 6 4 9-1 6-4 12-7 17 4-2 9-3 14-3 1 0 2 0 3 0 16 0 32 8 41 23 2 3 2 6 1 10-3 5-7 10-11 14 1 0 2 0 3 0 3 0 7 0 11 1 17 4 31 17 36 34 1 3 0 7-2 9-5 5-10 8-15 11 5 1 9 3 13 5 16 8 26 25 26 42 0 4-2 7-5 9z m-385-33c4-6 6-15 4-23-2-8-7-15-14-19-5 7-6 15-4 23 1 9 7 15 14 19z m-33 27c4 7 11 12 19 14 3-8 2-16-2-23-4-8-11-13-19-15-2 8-2 17 2 24z m-12 26c0 0-1 0-1 0 0 9 3 17 8 23 6 5 13 8 21 8 1 0 1 0 2 0 0-8-3-16-9-22-5-6-13-9-21-9z m32 160c5 7 12 12 20 13 2-8 1-16-4-23-4-8-11-12-19-14-2 8-1 17 3 24z m6-45c2 0 4 0 6 0 6 0 12-2 17-5-4-7-11-12-19-14-2-1-4-1-7-1-6 0-11 2-16 5 4 7 11 13 19 15z m-22-44c4 2 9 3 14 3 4 0 7 0 10-1-2-8-7-15-15-19-4-3-9-4-14-4-3 0-6 1-9 2 2 8 7 15 14 19z m-25 83c7-4 12-11 14-19 2-6 1-12-1-17-1-2-2-4-3-6-7 4-13 10-14 18-2 9-1 17 4 24z m-31-58c8-2 15-8 19-15 3-5 4-11 4-16-1-3-1-5-2-7-8 1-14 7-18 14-5 7-5 16-3 24z m-13-65c1 0 1 0 2 0 7 0 15-3 20-8 4-5 7-10 8-16 0-2 0-4 1-7-1 0-1 0-2 0-8 0-15 3-20 9-6 6-9 14-9 22z m19-85c-7 4-12 11-14 19 3 1 6 2 9 2 5 0 10-1 15-4 5-3 9-7 12-12 0-2 1-4 2-7-3-1-6-1-10-1-4 0-9 1-14 3z m34-57c-2 0-4 0-6 0-8 2-15 8-19 15 5 3 10 5 16 5 3 0 5 0 7-1 6-1 11-4 15-9 2-2 3-3 4-5-5-3-11-5-17-5z m36-47c-9 0-17 3-22 9 5 6 13 10 21 10 6 1 12-1 17-4 2-1 3-3 5-4-5-6-13-10-21-11z m33 70c6-5 10-13 11-21 0-9-3-17-9-22-6 5-10 12-11 21 0 8 3 16 9 22z m20-104c-7-2-16-2-23 2 3 8 9 14 17 17 6 1 12 2 17 0 3-1 5-2 7-3-3-7-10-13-18-16z m27 36c-7 3-13 9-16 17-3 8-2 16 2 24 7-4 13-10 16-18 3-8 2-16-2-23z m302 187c0 0 0 0 1 0 0-8-3-16-9-22-5-6-12-9-20-9-1 0-1 0-2 0 1 3 1 5 1 7 1 6 4 11 8 16 5 5 13 8 21 8z m-31 50c4 7 11 13 19 15 2-8 2-17-2-24-5-7-11-13-19-14-1 2-1 4-2 7 0 5 1 11 4 16z m-26 54c2 8 7 15 14 19 5-7 6-15 4-24-1-8-7-14-14-19-1 3-2 5-3 7-2 5-3 11-1 17z m-16-126c-6 6-9 14-9 22 1 0 1 0 2 0 8 0 15-3 21-8 5-6 8-14 8-23 0 0-1 0-1 0-8 0-16 3-21 9z m11-59c-8 2-15 7-19 15-4 7-5 15-2 23 8-2 15-7 19-14 4-7 4-16 2-24z m8 102c-3-1-6-2-9-2-5 0-10 1-14 4-8 4-13 11-15 19 3 1 6 1 10 1 5 0 10-1 14-3 7-4 12-11 14-19z m-50 121c8-1 15-6 20-13 4-7 5-16 3-24-8 2-15 6-19 14-5 7-6 15-4 23z m-9-63c5 3 11 5 17 5 2 0 4 0 6 0 8-2 15-8 19-15-5-3-10-5-16-5-3 0-5 0-7 1-8 2-15 7-19 14z m16-163c7-4 13-10 14-19 2-8 1-16-4-23-7 4-12 11-14 19-2 8 0 17 4 23z m-71-103c-4 7-5 15-2 23 3 8 9 14 16 18 4-8 5-16 2-24-3-8-9-14-16-17z m27-36c-8 3-15 9-18 16 2 1 5 2 7 3 2 1 5 1 7 1 4 0 7 0 10-1 8-3 14-9 17-17-7-4-16-4-23-2z m29 82c-1-9-5-16-11-21-6 5-9 13-9 22 1 8 5 16 11 21 6-6 9-14 9-22z m26-48c-1 0-1 0-2 0-8 1-16 5-21 11 2 1 3 3 5 4 5 3 11 5 17 4 8 0 16-4 21-10-5-6-12-9-20-9z m40 47c-2 0-4 0-6 0-6 0-12 2-17 5 1 2 2 3 4 5 4 5 9 8 15 9 2 1 4 1 7 1 6 0 11-2 16-5-4-7-11-13-19-15z m28 57c-5-2-9-3-14-3-4 0-7 0-10 1 1 3 2 5 2 7 3 5 7 9 12 12 5 3 10 4 15 4 3 0 6-1 9-2-2-8-7-15-14-19z m-271-166c-5 0-10-4-10-10 0-5 5-10 10-10 6 0 10 5 10 10 0 6-4 10-10 10z m108 0c-6 0-10-4-10-10 0-5 4-10 10-10 5 0 10 5 10 10 0 6-5 10-10 10z"/>
<glyph glyph-name="arco" unicode="&#101;" d="M512 10c0 0 0 0 0 0 0 0 0 1 0 1 0 0 0 0 0 0 0 0 0 0 0 0 0 0 0 1 0 1 0 0 0 0 0 0 0 0 0 1 0 1 0 0 0 0-1 0 0 0 0 1 0 1 0 0 0 0 0 0 0 0 0 0 0 1 0 0 0 0 0 0 0 0-1 0-1 0 0 1 0 1 0 1 0 0 0 0 0 0 0 0 0 0 0 1-1 0-1 0-1 0 0 0 0 0 0 0 0 0 0 0 0 1-1 0-1 0-1 0 0 0 0 0 0 0 0 0 0 0 0 0 0 0 0 0-1 0 0 0 0 1 0 1 0 0 0 0 0 0 0 0 0 0 0 0-1 0-1 0-1 0 0 0 0 0 0 0-35 16-43 59-51 104-6 35-13 72-34 98-24 29-63 40-119 32l-18 17 105 105 14-29c2-4 5-6 9-6 0 0 1 0 1 0 4 1 8 4 9 8l22 84c1 3 0 7-2 10-3 2-7 3-10 2l-84-22c-4-1-7-5-8-9 0-4 2-8 6-10l29-14-105-105-17 18c8 56-3 95-32 119-26 21-63 28-98 34-45 8-88 16-104 51 0 0 0 0 0 0 0 0 0 0 0 1 0 0 0 0 0 0 0 0 0 0 0 0 0 0-1 0-1 0 0 1 0 1 0 1 0 0 0 0 0 0 0 0 0 0 0 0 0 0 0 0 0 0 0 0 0 0 0 0-1 1-1 1-1 1 0 0 0 0 0 0 0 0 0 0-1 1 0 0 0 0 0 0 0 0 0 0 0 0 0 0 0 0-1 0 0 0 0 1 0 1 0 0 0 0 0 0 0 0-1 0-1 0 0 0 0 0 0 0 0 0 0 0 0 0 0 0 0 0 0 0 0 0-1 0-1 0 0 1 0 1 0 1 0 0-1 0-1 0 0 0 0 0 0 0 0 0 0 0-1 0 0 0 0 0 0 0 0 0 0 0 0 0 0 0 0 0-1 0 0 0 0 0 0 0 0 0 0 0 0 0 0 0 0 0 0 0 0 0 0 0 0 0-1 0-1 0-1 0 0 0 0 0 0 0 0 0 0 0 0 0 0 0 0 0 0 0 0 0 0 0 0 0 0 0-1 0-1 0 0 0 0 0 0 0 0 0 0 0 0 0 0 0 0 0 0 0 0 0-1 0-1 0 0 0 0 0 0 0 0-1 0-1 0-1 0 0 0 0-1 0 0 0 0 0 0 0 0 0 0 0 0 0 0 0 0 0 0 0 0 0 0 0-1 0 0 0 0 0 0 0 0 0 0 0 0 0 0 0 0-1 0-1-1 0-1 0-1 0 0 0 0 0 0 0 0 0 0 0 0 0 0 0 0 0-1 0 0-1 0-1 0-1 0 0 0 0 0 0 0 0 0 0-1 0 0-1 0-1 0-1 0 0 0 0 0 0 0 0 0 0 0-1 0 0-1 0-1 0 0 0 0 0 0 0 0-1 0-1 0-1 0 0 0 0 0 0 0 0 0-1 0-1-1 0-1 0-1 0 0 0 0-1 0-1 0 0 0 0 0 0 0 0 0-1 0-1 0 0 0 0 0 0 0 0 0 0 0 0 0 0 0-1 0-1 0 0 0 0 0 0 0 0 0 0 0 0 0 0 0 0 0 0 0 0 0 0 0-1 0 0 0 0 0 0 0 0 0 0 0 0l39-391-36-36c-3-3-4-7-3-10 1-3 4-6 7-7l39-11 11-39c1-3 4-6 7-7 1 0 2 0 3 0 2 0 5 1 7 3l36 36 391-39c0 0 0 0 0 0 0 0 0 0 0 0 0 0 1 0 1 0 0 0 0 0 0 0 0 0 1 0 1 0 0 0 0 0 0 0 0 0 0 0 1 0 0 0 0 0 0 0 0 0 0 0 0 0 0 0 1 0 1 0 0 0 0 0 0 1 0 0 0 0 1 0 0 0 0 0 0 0 0 0 0 0 0 0 0 0 0 0 0 0 1 0 1 0 1 0 0 0 0 0 0 0 0 0 0 1 0 1 0 0 0 0 0 0 0 0 1 0 1 0 0 0 0 0 0 0 0 0 0 0 0 0 0 0 0 0 0 0 0 0 0 0 1 0 0 0 0 0 0 1 0 0 0 0 0 0 0 0 0 0 0 0 0 0 0 0 0 0 0 0 1 0 1 1 0 0 0 0 0 0 0 0 0 0 0 0 0 0 0 0 0 1 0 0 0 0 0 0 0 0 1 0 1 0 0 0 0 0 0 0 0 0 0 1 0 1 0 0 0 0 0 0 0 0 0 0 0 0 0 0 0 0 0 0 0 0 0 0 0 0 0 0 0 0 0 1 0 0 0 0 1 0 0 0 0 0 0 0 0 1 0 1 0 1 0 0 0 0 0 0 0 0 0 0 0 0 0 0 0 1 0 1 0 0 0 0 0 0 0 0 0 0 0 0 0 0 0 0 0 0 0 0 0 0 0 0 0 0 0 0 0 0 0 1 0 1 0 1 0 0 0 0 0 0 0 0 0 0 0 0z m-92 410l-11-42-9 18c0 0 0 0 0 0 0 0 0 0 0 0 0 1 0 1 0 1 0 0 0 0 0 0 0 0 0 0-1 1 0 0 0 0 0 0 0 0 0 0 0 1-1 0-1 0-1 0 0 0 0 0 0 0-1 1-1 1-1 1 0 0 0 0 0 0 0 0 0 0-1 0 0 0 0 0 0 0 0 0 0 0 0 0l-18 9z m-136-178l-14-14-42 42 14 14z m-165 194c70-13 130-23 113-133l-19-20c-1 0-1 0-1 1-2 1-4 2-6 4 12 34 13 61 2 82-15 30-50 41-87 52-29 8-56 16-76 33 22-10 48-15 74-19z m-93 10c5-5 11-10 17-15 22-13 47-21 72-28 33-10 64-19 76-42 8-16 6-39-5-69-4-13 9-21 15-25 2-1 5-3 5-4 0 0 0 0 0 0 0 0 0 0 1 0l21-21-134-134-36 10z m26-380l-23 6 26 26 23-6z m20-37l-6 23 26 26 6-23z m46 29l-10 36 134 134 21-21c0-1 0-1 0-1 0 0 0 0 0 0 1 0 3-3 4-5 4-6 12-19 25-15 30 11 53 13 69 5 23-12 32-43 42-76 7-25 15-50 28-72 5-6 10-12 15-17z m304 63c-11 37-22 72-52 87-21 11-48 10-82-2-2 2-3 4-4 6-1 0-1 0-1 1l20 19c110 17 120-43 133-113 4-26 9-52 19-74-17 20-25 47-33 76z"/>
<glyph glyph-name="pv" unicode="&#102;" d="M385 114l-1-1c-4-3-6-9-3-14 2-2 6-4 9-4 2 0 4 1 5 2l1 0c4 3 6 9 3 14-3 4-10 6-14 3z m68 18l-6 32c0 0 0 0 0 0l-28 149c0 1 0 1 0 2l0 2c0 0 0 0-1 0-5 28-17 53-35 74-16 19-36 34-59 44l5 17c0 1 0 2 0 3 0 2 0 3-1 5l-20 46c-1 4-5 6-9 6l-86 0c-4 0-8-2-9-6l-20-47c0 0 0 0 0 0 0 0-1-1-1-1 0 0 0 0 0 0 0-1 0-1 0-1 0 0 0 0 0 0 0-1 0-1 0-2 0 0 0 0 0 0 0 0 0 0 0-1 0 0 0 0 0 0 0 0 0 0 0-1 0 0 0 0 0 0 0 0 0 0 0 0l5-18c-23-10-43-25-59-44-18-21-30-47-35-74-1 0-1 0-1 0l0-2c0-1 0-1 0-2l-34-181c-10-54 46-84 91-108 14-8 28-15 38-22 1-1 3-2 6-2 1 0 3 0 4 1 3 2 6 5 6 9l0 154c0 3-2 6-4 8-5 4-10 7-15 11-27 20-48 37-40 53l10 18 71-29 4-85c0-1 0-1 0-2 4-16 10-37 26-37 16 0 22 21 26 37 0 1 0 1 0 2l4 85 71 29 10-18c8-16-13-33-40-53-5-4-10-7-15-11-2-2-4-5-4-8l0-154c0-4 3-7 6-9 3-2 7-1 10 1 10 7 24 14 38 22 45 24 101 54 91 108z m-234 360l74 0 11-27-96 0z m87-47l-3-13c0 0 0 0 0 0l-12-44-25 0 0 30c0 6-4 10-10 10-6 0-10-4-10-10l0-30-25 0-3 10c0 0 0 0 0 0l-9 34c0 0 0 0 0 0l-3 13z m-32-77l-5-21-26 0-5 21z m79-326c-9-5-17-9-25-14l0 131c4 3 7 6 11 8 13 9 27 20 37 32 13 16 16 31 9 46l-14 27c-2 4-8 6-13 4l-85-35c-4-1-6-5-6-9l-5-90c-1-5-3-14-6-19-3 5-5 14-6 19l-5 90c0 4-2 8-6 9l-85 35c-5 2-11 0-13-4l-14-27c-7-15-4-30 9-46 10-12 24-23 37-32 4-2 7-5 11-8l0-131c-8 5-16 9-25 14-41 22-88 47-81 87l34 181c0 0 0 0 0 0 1 0 1 1 1 1l0 2c0 0 0 0 0 0 9 45 39 83 80 103l4-15c-10-5-18-11-26-18-4-4-4-10 0-14 2-2 4-3 7-3 2 0 5 1 7 2 5 5 11 9 17 13l1-6c1-4 5-7 10-7l5 0 8-33c1-5 5-8 9-8l42 0c4 0 8 3 9 8l8 33 5 0c5 0 9 3 10 7l10 41c41-20 71-58 80-103 0 0 0 0 0 0l0-2c0 0 0-1 1-1 0 0 0 0 0 0l27-147c-1-5-7-18-22-33-4-4-4-10 0-14 2-2 5-3 7-3 3 0 5 1 7 3 6 5 10 11 14 16l1-3c7-40-40-65-81-87z m-183 311c0-6-5-10-10-10-6 0-10 4-10 10 0 5 4 10 10 10 5 0 10-5 10-10z"/>
<glyph glyph-name="dual-espada" unicode="&#103;" d="M341 331c2 0 5 1 7 2l0 1c4 4 4 10 0 14-4 4-10 4-14 0l-1 0c-3-4-3-11 0-15 2-1 5-2 8-2z m162-266l-95 96 19 26c3 4 2 9-1 13l-33 33c-3 3-9 4-13 1l-25-19-29 35 182 152c3 2 4 5 4 8l0 92c0 6-4 10-10 10l-92 0c-3 0-6-1-8-4l-146-174-146 174c-2 3-5 4-8 4l-92 0c-6 0-10-4-10-10l0-92c0-3 1-6 4-8l182-152-29-35-25 19c-4 3-10 2-13-1l-33-33c-3-4-4-9-1-13l19-26-95-96c-12-11-12-30 0-42l14-14c6-6 13-9 21-9 8 0 16 3 21 9l96 95 26-19c2-1 4-2 6-2 3 0 5 1 7 3l33 33c3 3 4 9 1 13l-19 25 41 34 41-34-19-25c-3-4-2-10 1-13l33-33c2-2 4-3 7-3 2 0 4 1 6 2l26 19 96-95c5-6 13-9 21-9 8 0 15 3 21 9l14 14c6 6 9 13 9 21 0 8-3 16-9 21z m-164 138l-9-7-31 31 12 10z m-319 212l0 77 77 0 146-174-16-19-29 28c-3 4-10 4-14 0-4-4-4-10 0-14l30-29-6-7-10-12z m31-392c-2-2-4-3-7-3-2 0-5 1-7 3l-14 14c-4 4-4 10 0 14l20 21 33-25z m39 39l-32 24 24 24 32-24z m39 38l-33 25 21 20 11-15c0 0 1-1 1-1 0-1 1-1 1-1l6-4 9-7z m63 6l-26 20c0 0 0 0 0 0l-23 17-17 23c0 0 0 0 0 0l-20 26 21 20 49-36 36-49z m11 67l-7 9 131 131c4 4 4 10 0 14-4 4-10 4-14 0l-131-131-9 7 34 42c0 0 0 0 0 0l23 27 185 220 77 0 0-77-214-179c0-1 0-1-1-1z m69 31l12 10 32-32-7-9z m74-78c0 0 0 0 0 0l-26-20-20 21 19 25c0 0 0 0 0 0l17 24 49 36 21-20-20-26c0 0 0 0 0 0l-17-23z m21-9l15 11c1 1 1 1 2 2l11 15 21-20-33-25z m31-31l32 24 24-24-32-24z m91-49l-14-14c-2-2-5-3-7-3-3 0-5 1-7 3l-25 24 33 25 20-21c2-2 3-4 3-7 0-2-1-5-3-7z m-311 311c-4 4-10 4-14 0-4-4-4-10 0-14l0-1c2-1 4-2 7-2 3 0 5 1 7 2 4 4 4 11 0 15z"/>
<glyph glyph-name="labrys" unicode="&#104;" d="M508 330c-2 2-5 2-8 2-10-2-20-3-29-3-26 0-51 7-73 20 0 0 0 0 0 0-2 1-3 1-4 2l18 19c0 0 0 0 0 0l14 14c7-7 15-12 27-15 4-1 9 0 11 4 18 32 29 81 29 110 0 3-1 5-3 7-2 2-4 3-7 3-29 0-78-11-110-29-4-2-5-7-4-11 3-12 8-20 15-27l-14-14c0 0 0 0 0 0l-19-18c0 0 0 0 0 0-1 1-1 1-1 2-19 31-26 68-18 104 0 3 0 6-2 8-2 3-5 4-8 4l-1 0c-51 0-98-20-134-56-40-40-61-95-55-152 0-5 5-9 10-9 4 0 8 1 12 1 26 0 51-7 72-20 0 0 1-1 1-1 1 0 2-1 4-2l-116-115c-3 1-7 0-9-3l-103-103c-4-3-4-10 0-14l35-35c2-2 5-3 7-3 3 0 6 1 7 3l103 103c2 2 3 4 3 7 0 1 0 2 0 2l115 116c17-26 25-57 22-89 0-5 4-10 9-10 6-1 12-1 17-1 51 0 99 20 135 56 36 36 56 84 56 135 0 3-1 6-4 8z m-35 143c-2-25-10-58-22-82-7 3-11 7-18 14l0 0c-2 2-4 3-7 3-2 0-5-1-7-3l-14-14-14 14 14 14c2 2 3 4 3 7 0 3-1 5-3 7l0 0c-7 7-11 11-14 18 24 12 57 20 82 22z m-96-82l14-14-13-14c-1 0-1 1-1 1-1 0-2 1-2 2-1 0-1 0-1 1 0 0 0 0-1 0-1 1-2 2-3 3 0 0 0 0 0 0-1 1-2 2-3 4 0 0-1 0-1 1 0 0 0 0 0 0-1 1-2 1-2 2 0 0-1 0-1 0z m-147-95c-23 13-49 20-76 20-1 0-2 0-3 0-2 47 16 92 50 126 29 30 68 47 109 50-4-34 2-68 18-98z m-185-272l-21 21 10 10 33-9z m38 38l-33 9 21 21 33-9z m38 38l-34 9 26 25 21-21z m24 30l-15 15 117 116c0 0 0 0 0-1 1 0 2-1 3-2 0 0 0 0 0 0 0-1 1-1 1-1 1-1 2-2 3-3 0 0 0 0 0 0 1-1 2-2 3-3 0-1 1-1 1-1 0 0 0 0 0 0 1-1 2-2 2-3 0 0 1 0 1 0z m141 118c-1 1-3 2-4 4 0 0 0 0 0 0 0 0 0 0 0 0-1 2-2 3-3 4 0 0 0 0 0 0 0 0 0 0 0 0 0 0 0 0 0 1-1 0-2 1-2 2 0 0-1 0-1 1 0 0 0 0 0 0 0 0-1 0-1 0 0 1 0 1-1 2 0 0 0 0-1 1 0 0 0 1-1 1 0 0 0 0 0 1-1 0-1 0-1 0-1 1-2 2-3 3-1 1-2 2-2 3-1 0-1 0-1 1-1 0-1 0-1 0 0 1-1 1-1 1-1 1-1 1-2 2 0 0 0 0-1 0 0 0 0 1 0 1 0 0-1 1-2 1 0 0 0 0 0 1-3 2-7 5-10 8l91 91c0-1 1-2 1-3 1 0 1 0 1-1 0 0 1 0 1-1 0 0 0 0 0 0 0 0 0 0 0 0 1-1 1-1 1-1 0-1 1-1 1-2 0 0 1 0 1-1 0 0 0 0 1-1 0 0 0 0 0 0 0 0 0 0 1-1 0 0 1-1 1-2 1 0 1 0 1 0 0-1 0-1 0-1 1 0 1 0 1-1 1 0 1-1 2-2 0 0 0 0 1 0 0-1 0-1 0-1 1-1 2-2 3-3 0 0 0 0 0 0 1-1 2-2 3-3 0 0 0 0 1 0 0-1 0-1 0-1 1 0 1-1 1-1 1 0 1-1 2-1 0-1 0-1 1-1 0 0 0 0 0 0 1-1 1-1 2-2 0 0 0 0 0-1 4-2 7-5 11-7z m156-47c-34-34-79-52-126-50 0 28-7 55-20 79l98 98c23-13 49-19 77-19 7 0 14 0 21 1-3-41-20-80-50-109z m-237 200c-5 2-11 1-14-4l0 0c-3-5-1-11 4-14 1-1 3-1 5-1 3 0 6 1 8 5l0 0c3 5 2 11-3 14z m243-141c-5 2-11 1-14-4l0 0c-2-5-1-11 4-14 2-1 3-1 5-1 4 0 7 2 9 5l0 0c3 5 1 11-4 14z m-166 207c-25-7-48-20-67-39-2-2-5-5-7-7-3-4-3-11 1-14 2-2 4-3 7-3 3 0 5 1 7 4 2 2 4 4 6 6 16 16 36 28 59 34 5 1 8 6 7 12-2 5-7 8-13 7z m152-231c-5 4-11 3-15-1-1-2-3-4-5-6-16-16-37-28-59-34-5-1-8-7-7-12 1-5 5-7 10-7 1 0 2 0 2 0 26 7 49 20 68 39 2 2 4 4 6 7 4 4 4 10 0 14z"/>
<glyph glyph-name="dual-daga" unicode="&#105;" d="M340 330c3 0 5 1 7 3l0 0c4 4 4 10 0 14-4 4-10 4-14 0l0 0c-4-4-4-10 0-14 2-2 4-3 7-3z m164-217c-6 6-13 9-21 9l-32 0c-8 25-26 53-51 77-7 7-13 13-20 18 0 0 0 0 0 0-9 7-18 13-26 18 19 22 41 51 64 85 43 65 84 144 94 179 1 4 0 7-3 10-2 3-6 4-10 3-28-8-108-48-179-96-24-15-46-31-64-46-18 15-40 31-64 46-71 48-151 88-179 96-4 1-7 0-10-3-3-2-4-6-3-10 10-35 51-114 95-179 22-34 44-63 63-85-8-5-17-11-26-18 0 0 0 0 0 0-7-6-13-12-20-18-25-24-43-52-51-77l-32 0c-8 0-15-3-21-9-5-5-8-13-8-20l0-64c0-8 3-15 8-21 6-5 13-8 21-8l64 0c8 0 15 3 20 8 6 6 9 13 9 21l0 32c25 8 53 26 77 51 13 13 25 28 34 42 0 0 0 0 0 0 0 0 0 0 0 1 7 10 12 21 16 31l7 1 7-1c4-10 9-21 16-31 0-1 0-1 0-1 0 0 0 0 0 0 9-14 21-29 34-42 24-25 52-43 77-51l0-32c0-8 3-15 9-21 5-5 12-8 20-8l64 0c8 0 15 3 20 8 6 6 9 13 9 21l0 64c0 7-3 15-8 20z m-393 218c-38 58-70 119-85 154 36-14 99-48 155-85 22-15 42-29 59-43-5-4-10-9-14-13-8-8-15-16-21-23l-6 6c-4 4-10 4-14 0-4-4-4-11 0-14l8-9c-6-11-8-21-7-30l2-25c-4-1-7-3-11-4-20 21-43 51-66 86z m-12-309c-2-1-4-2-6-2l0-10 0 10-64 0c-3 0-5 1-6 2-2 2-3 4-3 7l0 64c0 2 1 4 3 6 1 1 3 2 5 2 1-5 4-11 8-16-7-12-8-29-1-45 1-2 3-4 5-5 8-4 15-5 23-5 8 0 16 2 22 6 5-4 11-7 16-8 0-2 0-4-2-6z m3 27c-4 2-7 4-10 7-2 2-4 3-7 3-2 0-5-1-7-3-5-5-11-6-15-6-4 0-7 1-11 2-3 11-2 20 4 26 4 4 4 10 0 14-3 3-5 6-7 10l15 0 38-38 0-15z m12 30l-35 35c3 8 7 16 11 24l65-37c-13-10-27-17-41-22z m58 35l-71 41c11 15 24 30 38 42l71-41c-10-15-24-29-38-42z m55 72c-2-4-4-9-6-13l-65 37c6 4 11 7 17 10 6 4 13 7 19 9 1 1 2 1 4 2l17-18 18-18c-1-3-3-6-4-9z m47 75c-1-8-5-15-11-20-2-2-3-5-3-7 0-3 1-6 3-7 4-4 6-10 6-15 1-2 0-4 0-6l-13 1-10 1-4 4-16 16-18 19-2 22c2 0 3 1 5 1 2 0 4-1 6-1 3-1 7-3 9-6 3-3 8-4 12-2 1 1 2 1 3 2 4 5 9 8 15 10 4 1 9 2 14 2 2 0 3 0 5 0 1-5 0-9-1-14z m21 19l9 9 0 1 15 14 8 9c4 4 4 10 0 14-4 4-10 4-14 0l-33-33c-3 1-6 1-10 1-5 0-9 0-14-1-8-2-16-6-23-11-6 4-14 6-22 6-1 0-2 0-2 0-1 0-1 0-1 0 0 0 0 0 0 0 3 5 6 11 11 18 5 6 12 14 21 23 5 4 10 9 16 14 5 5 10 9 16 13 17 14 37 28 59 43 57 37 119 71 155 85-15-35-47-96-85-154-23-35-46-65-66-86-1-1-2-3-3-4-4-4-8-8-12-12-8-7-15-12-21-16-4-2-7-4-9-5 0 7-1 14-4 20-1 2-2 4-3 5 8 11 12 23 13 36-1 4-1 7-1 11z m-10-94c16 3 34 14 54 34 6-3 11-6 17-10l-65-37c-2 4-4 9-6 13z m17-30l71 41c14-12 27-27 38-42l-71-41c-14 13-27 27-38 42z m96-77c-14 5-28 12-41 22l65 37c4-8 8-16 11-24z m12-15l38 37 15 0c-2-3-4-6-7-9-4-4-4-10 0-14 6-6 7-16 4-26-4-1-7-2-11-2-4 0-11 1-15 6-2 2-5 2-7 2-3 0-5-1-7-2-3-3-6-6-10-7l0 15z m82-35c0-3-1-5-2-7-2-1-4-2-7-2l-64 0 0-10 0 10c-2 0-4 1-6 2-1 2-2 4-2 6 5 1 11 4 16 8 6-4 14-6 22-6 8 0 15 2 23 5 2 1 4 3 5 5 7 16 6 33-1 45 4 5 7 11 8 17 2-1 4-1 5-3 2-2 3-4 3-6l0-64z m-313 318l0 0c-4 4-10 4-14 0-4-4-4-10 0-14l0 0c2-2 5-3 7-3 3 0 5 1 7 3 4 4 4 10 0 14z"/>
<glyph glyph-name="espada" unicode="&#106;" d="M334 348l0 0c-4-4-4-11 0-15 2-2 4-2 7-2 2 0 5 1 7 2l0 1c4 4 4 10 0 14-4 4-10 4-14 0z m168 164l-92 0c-3 0-6-1-8-4l-146-174-22-27 9 11-9-11-48-57-29-35-25 19c-4 3-10 2-13-1l-33-33c-3-4-4-9-1-13l20-26-96-96c-12-11-12-30 0-42l14-14c6-6 13-9 21-9 8 0 16 3 21 9l96 95 26-19c2-1 4-2 6-2 3 0 5 1 7 3l33 33c3 3 4 9 1 13l-19 24 41 35 48 40-5-4 5 4 22 19 182 152c3 2 4 5 4 8l0 92c0 5-4 10-10 10z m-294-236l6 7-15-18z m-157-253c-2-2-4-3-7-3-2 0-5 1-7 3l-14 14c-4 4-4 10 0 14l20 21 33-25z m39 39l-32 24 24 24 32-24z m39 38l-33 25 21 20 11-15c0 0 1-1 1-1 0-1 1-1 1-1l6-4 9-7z m63 6l-26 20-23 17-17 23-20 26 21 20 49-36 36-49z m80 98l12 10z m220 211l-214-179c0-1 0-1 0-1l-75-63-7 10 131 131c4 4 4 10 0 14-4 4-10 4-14 0l-131-131-9 7 34 42 23 27 185 220 77 0z m-284-139l-9-11 15 18z"/>
<glyph glyph-name="vel" unicode="&#107;" d="M426 264c-6 1-12 3-18 4-28 7-63 17-95 32l1 2c2 5 0 9-5 11-4 2-9 0-10-5l-1 0c-8 4-16 9-23 14l1 1c2 4 1 9-2 12-4 2-9 2-12-2l0-1c-7 6-14 12-20 19 1 1 1 1 1 1 4 3 4 8 2 11-3 4-8 5-12 2 0 0 0 0-1-1l-28 38c-3 3-8 4-12 1-13-10-22-25-24-41-2-14 0-28 7-40-10-8-19-14-24-17-14-11-43-13-63-6l-77 28c-3 1-5 1-8-1-2-1-3-4-3-6l0-205c0-4 4-8 8-8l496 0c4 0 8 4 8 8l0 66c0 62-36 71-86 83z m69-75l-81 0 0 61c3-1 5-1 8-2 46-11 71-17 73-59z m-203 103l-14-36c-13 7-25 14-36 22l23 31c9-6 18-12 27-17z m-40 27l-23-31c-12 9-22 19-31 30 11 9 22 17 31 23 7-8 15-15 23-22z m-68 40c1 10 5 19 12 26l23-31c-9-6-20-14-31-22-4 8-6 18-4 27z m-101-75c25-10 59-6 78 7 5 4 13 10 23 18 10-13 22-24 36-35l-3-3c-3-4-2-9 2-12 1-1 3-1 5-1 2 0 5 1 6 3l3 4c12-9 25-17 39-24l-1-3c-2-4 0-9 4-11 1 0 2 0 3 0 3 0 7 1 8 5l1 2c15-7 32-14 50-20 4-1 9 1 10 5 2 5-1 9-5 11-18 6-34 12-49 19l14 36c31-14 63-24 91-31l0-65-382 0 0 119z m-67-144l268 0c4 0 8 4 8 8 0 5-4 8-8 8l-268 0 0 17 292 0 0-50-292 0z m309-17l0 50 171 0 0-50z"/>
<glyph glyph-name="pe" unicode="&#108;" d="M509 463c-14 14-34 23-53 23-22 0-42-10-56-28-6-7-12-17-17-30l-254 0c-5 13-11 23-17 30-14 18-34 28-56 28-19 0-39-9-53-23-3-3-4-7-2-11 1-4 5-6 9-6 23 0 38-5 47-16 0-1 1-2 1-2l-10 0c-14 0-25-12-25-25 0-14 11-25 25-25l17 0c-2-20-8-43-13-67-16-69-33-146 8-200 30-39 84-59 167-63l18-19c2-2 5-3 7-3 3 0 6 1 7 3l19 19c86 3 143 23 173 62 43 54 25 132 9 201-5 24-11 47-13 67l17 0c14 0 25 11 25 25 0 13-11 25-25 25l-11 0c1 0 2 1 2 2 9 11 24 16 47 16 4 0 8 2 9 6 2 4 1 8-2 11z m-137-282c-6-8-14-14-23-20 0 0-1 0-2-1-7-4-15-8-25-10l0 228 54 0c0-15 2-32 6-52 11-48 19-108-10-145z m6 227c0-4-1-7-1-10l-242 0c0 3-1 6-1 10z m-76-30l0-233c-9-1-20-3-31-3l-9 9 0 227z m-60 0l0-227-8-9c-11 1-22 3-32 5l0 231z m-112-52c4 20 6 37 6 52l46 0 0-226c-6 3-12 5-18 8 0 1-1 1-1 1-9 6-17 13-23 21-29 36-21 96-10 144z m-82 72c-3 0-5 2-5 5 0 2 2 5 5 5l17 0c1-3 1-7 1-10 0 0 0 0 0 0z m68-307c-17 8-30 19-40 32-36 47-19 119-5 184 14 57 25 106 1 136-7 9-19 16-33 20 5 2 11 3 17 3 16 0 30-7 41-20 19-24 24-65 13-116-11-52-19-117 14-160 6-8 12-15 20-21-4-8-5-17-5-25-10 4-18 10-24 16-5 3-11 3-15-1-3-4-3-10 1-14 8-7 17-13 29-18-6-4-10-9-14-16z m157-23c-2 0-5-1-7-3l-14-14-14 14c-2 2-4 3-7 3-38 2-70 7-96 15 5 9 17 14 21 14 4 0 7 2 9 5 2 3 2 7-1 11 0 0-9 13-2 26 20-10 45-15 76-17 3 0 6 1 8 3l6 7 7-7c2-2 5-3 8-3 34 1 61 7 83 17 7-13-2-26-3-26 0 0 0-1 0-1 0 0 0 0 0-1 0 0 0 0 0 0 0 0-1 0-1-1 0 0 0 0 0 0 0 0 0-1 0-1 0 0 0 0 0 0 0-1 0-1 0-1 0-1 0-1 0-1 0-1 0-1 0-2 0 0 0 0 0-1 0 0 0 0 0 0 0 0 0 0 0-1 0 0 0 0 0 0 0 0 0-1 1-1 0 0 0 0 0 0 0 0 0 0 0 0 0 0 0-1 0-1 0 0 0 0 0 0 1-1 2-2 2-2 0 0 0 0 0 0 1 0 1-1 1-1 0 0 0 0 1 0 0 0 1-1 2-1l0 0c0 0 1 0 1 0 0 0 0 0 0 0 1 0 1 0 2 0 0 0 0 0 0 0 0 0 0 0 0 0 4 0 16-5 21-14-27-9-62-14-104-15z m191 340c3 0 5-3 5-5 0-3-2-5-5-5l-18 0c0 0 0 0 0 1 0 0 0 1 0 1 0 0 0 1 0 1 0 3 1 5 1 7z m-24 35c-24-30-13-79 1-136 14-65 31-138-5-185-10-12-24-23-40-31-3 6-8 11-13 15 11 5 20 10 27 17 4 4 4 10 0 14-4 4-10 4-14 1-6-6-14-11-24-15 1 8 0 18-4 26 7 6 14 12 20 20 34 43 25 109 14 161-11 51-6 92 13 116 11 13 25 20 41 20 6 0 12-1 17-3-14-4-26-11-33-20z m-339-284c0 0 0 0 0 0-2 6-8 8-13 6-5-2-8-8-6-13l0 0c2-4 6-7 10-7 1 0 2 1 3 1 5 2 8 8 6 13z m309-1c0 0 0-1 0-1-2-5 0-10 5-13 2 0 3 0 4 0 4 0 8 2 9 6l1 0c2 5-1 11-6 13-5 2-11 0-13-5z"/>
<glyph glyph-name="esencia" unicode="&#109;" d="M464 251c-29 25-58 36-98 36-15 0-33-4-46-8-16-5-29-8-42-8-10 0-20 2-30 6-25 8-42 21-52 40-19 34-14 78 12 101 12 10 26 15 40 15 10 0 20-3 28-7 13-8 23-20 25-32 2-10 0-19-7-29-5-5-11-8-17-8-3 0-6 1-8 3-2 2-3 2-3 4 1 0 1 0 2 1 2 0 5 1 8 4 5 3 7 9 7 15 0 8-4 16-11 20-6 5-13 7-21 7-8 0-17-3-24-8-15-11-23-30-19-50 4-25 22-47 46-54 8-3 17-4 25-4 13 0 25 3 36 8 25 13 41 32 48 61 9 36-4 78-33 103-17 15-35 23-59 28-7 1-15 2-22 2-36 0-71-17-98-47 0-1 0-1 0-1-22-28-32-56-32-89 0-50 20-81 52-113 2-2 4-3 5-5 10-11 21-22 26-35 8-16 10-33 8-51-3-27-17-51-38-64-12-8-27-12-41-12-16 0-31 4-42 13-16 11-25 31-25 49 0 11 4 25 19 36 6 3 13 6 20 6 7 0 22-3 22-22 0-2-1-3-1-3-1 0-1 1-1 1-2 2-6 7-13 7-1 0-1 0-2 0-13 0-22-10-22-25 0-23 17-39 42-39 8 0 15 1 22 4 15 6 27 19 33 36 7 21 4 46-7 64-15 25-42 40-73 40-37 0-72-21-89-54-15-28-18-58-9-88 9-27 27-52 52-68 21-14 45-22 71-22 28 0 58 10 82 27 44 30 52 62 64 105l2 4c7 25 23 45 45 60 10 6 24 10 37 11 3 0 5 1 8 1 36 0 74-20 81-65 2-16-2-33-12-47-7-8-17-18-35-20-1 0-3-1-5-1-15 0-31 9-36 22-2 4-2 12 1 18 2 4 5 8 8 9 1 0 2 0 3 0 0 0 0 0 1 0 0 0 0 0 0 0 0-1 0-2-1-3-1-4-3-14 7-21 4-3 9-5 14-5 8 0 17 5 24 12 7 9 10 20 8 32-4 27-28 46-57 46-18 0-34-7-47-20-16-16-25-39-25-61 0-19 5-37 17-52 10-13 25-25 42-33 12-5 25-8 39-8 21 0 42 6 60 17 34 21 55 55 58 98 4 43-11 79-47 110z m28-108c-4-37-20-65-50-83-14-9-32-14-49-14-11 0-22 3-31 7-30 13-47 37-47 66 0 17 7 35 19 47 9 9 21 14 33 14 16 0 34-9 37-29 2-8-1-13-4-16-3-3-6-5-8-5-1 0-1 0-1 0 0 1 0 1 0 2 1 4 3 14-6 22-4 4-9 5-14 5-3 0-6 0-9-1-9-3-17-10-21-20-5-12-5-25 0-35 8-19 31-33 54-33 3 0 6 1 8 1 19 3 36 13 48 28 13 18 19 41 15 62-3 25-15 46-35 61-18 13-41 21-65 21-3 0-6-1-10-1-16-1-33-7-45-15-27-17-46-41-55-71 0 0 0 0 0 0l-1-4c-12-42-19-67-56-94-21-14-47-23-71-23-22 0-42 7-60 18-39 27-64 80-37 131 14 26 42 43 72 43 24 0 44-11 56-30 8-13 10-32 5-48-3-8-9-18-21-23-5-2-10-3-15-3-5 0-22 1-22 19 0 3 1 5 2 5 0 0 0 0 0 0 2-2 4-5 9-7 2 0 4-1 7-1 12 0 21 10 21 23 0 16-7 26-13 31-7 7-18 11-29 11-10 0-21-4-31-9 0 0 0 0 0-1-17-11-27-30-28-51-1-25 12-51 33-66 15-11 34-17 54-17 18 0 36 5 52 15 26 17 43 45 47 79 3 21-1 42-9 62-7 15-20 28-30 40-2 1-3 3-5 5 0 0 0 0 0 0-30 30-47 55-47 99 0 29 9 52 27 76 23 26 53 41 83 41 6 0 12-1 18-2 21-4 36-11 50-23 23-21 34-54 27-83-6-23-18-38-38-48-8-4-17-6-27-6-6 0-13 1-19 3-19 6-30 23-33 38-1 8-1 22 12 31 4 3 8 4 12 4 3 0 6 0 10-3 1-1 2-3 2-4-1 0-1 0-2 0-4-2-15-6-15-21 1-10 6-16 10-19 6-5 14-7 21-7 12 0 24 6 33 16 0 0 0 0 0 0 10 14 14 30 11 45-4 18-17 35-35 45-12 7-25 10-38 10-19 0-38-7-53-20-33-29-41-83-17-126 13-23 34-40 63-49 13-5 25-7 37-7 15 0 30 4 48 9 0 0 0 0 0 0 14 4 30 7 40 7 35 0 60-9 85-31 30-27 44-57 41-93z m-111 168c18 0 36-3 53-10 2 0 3 0 4 0 4 0 8 2 9 6 2 6-1 11-6 13-19 7-39 11-60 11-6 0-10-5-10-10 0-6 4-10 10-10z m78-21c0 0 0 0 0 0 2-1 4-1 5-1 4 0 7 1 9 5 3 4 1 11-4 13l0 0c-5 3-11 2-14-3-3-5-1-11 4-14z"/>
<glyph glyph-name="escudo" unicode="&#110;" d="M256 512c-141 0-256-115-256-256 0-141 115-256 256-256 141 0 256 115 256 256 0 141-115 256-256 256z m0-492c-130 0-236 106-236 236 0 130 106 236 236 236 130 0 236-106 236-236 0-130-106-236-236-236z m0 427c8 0 15 7 15 15 0 8-7 15-15 15-8 0-15-7-15-15 0-8 7-15 15-15z m-88-13c0-8-7-15-15-15-8 0-15 7-15 15 0 9 7 15 15 15 8 0 15-6 15-15z m-75-75c0-8-7-15-15-15-9 0-15 7-15 15 0 8 6 15 15 15 8 0 15-7 15-15z m-28-103c0-8-7-15-15-15-8 0-15 7-15 15 0 8 7 15 15 15 8 0 15-7 15-15z m28-103c0-8-7-15-15-15-9 0-15 7-15 15 0 8 6 15 15 15 8 0 15-7 15-15z m68-62c-8 4-17 1-21-6-4-7-2-16 6-20 7-5 16-2 20 5 4 7 2 16-5 21z m95-26c-8 0-15-7-15-15 0-8 7-15 15-15 8 0 15 7 15 15 0 8-7 15-15 15z m96 26c-8-5-10-14-6-21 4-7 13-10 21-5 7 4 9 13 5 20-4 7-13 10-20 6z m97 62c0-8-6-15-15-15-8 0-15 7-15 15 0 8 7 15 15 15 9 0 15-7 15-15z m28 103c0-8-7-15-15-15-8 0-15 7-15 15 0 8 7 15 15 15 8 0 15-7 15-15z m-35 90c7 4 10 13 5 20-4 8-13 10-20 6-7-4-10-13-6-21 5-7 14-9 21-5z m-68 88c0-8-7-15-15-15-8 0-15 7-15 15 0 9 7 15 15 15 8 0 15-6 15-15z m-118-2c-97 0-176-79-176-176 0-32 9-62 23-88 1 0 1-1 1-1 10-17 23-32 38-45 0 0 0 0 0 0 0-1 1-1 2-1 30-26 69-41 112-41 43 0 82 15 112 41 1 0 2 0 2 1 0 0 0 0 0 0 15 13 28 28 38 45 0 0 0 1 1 1 14 26 23 56 23 88 0 97-79 176-176 176z m0-332c-34 0-66 11-92 30l92 92 92-92c-26-19-58-30-92-30z m107 43l-100 100c-4 4-10 4-14 0l-100-100c-9 8-17 18-24 28l131 131 131-131c-7-10-15-20-24-28z m34 46l-15 15c6 17 10 34 10 52 0 2 0 3 0 5 0 5-5 9-10 9-6 0-10-5-10-10 0-1 0-3 0-4 0-12-2-24-6-36l-103 103c-4 4-10 4-14 0l-103-103c-4 12-6 24-6 36 0 1 0 3 0 4 0 5-4 10-10 10-5 0-10-4-10-9 0-2 0-4 0-5 0-18 4-35 10-52l-15-15c-10 20-15 43-15 67 0 86 70 156 156 156 86 0 156-70 156-156 0-24-5-47-15-67z m-260 109c-5 2-11-1-12-7 0 0 0 0 0 0-2-5 1-11 7-12 1 0 1-1 2-1 5 0 9 3 10 8 0 0 0 0 0 0 1 5-2 11-7 12z m250-7c-1 6-7 9-12 7-5-1-8-7-7-12 1-4 5-8 10-8 0 0 1 1 2 1 5 1 9 6 7 12 0 0 0 0 0 0z"/>
<glyph glyph-name="hacha" unicode="&#111;" d="M201 411c-4 3-11 2-14-2 0 0 0-1 0-1l0 0c-3-4-2-10 3-14 1-1 3-1 5-1 3 0 6 1 8 4 4 5 3 11-2 14z m93 51c-1 6-6 9-12 8-25-5-49-16-69-33-2-2-5-4-7-6-4-4-4-10 0-14 2-2 4-3 7-3 2 0 5 1 7 2 2 2 4 4 6 6 17 15 38 24 60 28 5 1 9 7 8 12z m195 24c-29 0-77-10-108-28-4-2-6-7-5-11 3-13 9-20 15-27l-14-14c0 0 0 0 0 0l-18-18c-1 1-1 3-2 4-2 3-4 4-7 5-4 0-7-1-9-3l-16-16-33 33c10 4 20 6 30 7 3 0 5 2 7 4 2 2 2 5 2 8-5 23-4 46 3 69 0 2 0 6-2 8-1 3-4 4-7 4-5 1-11 1-16 1-44 0-88-16-122-45-42-36-66-89-66-145 0-5 5-10 10-10 23 0 45-5 65-16 3-1 7-1 10 0 3 2 5 5 5 9 0 11 3 22 7 33l34-34-18-17c-2-2-3-5-2-8 0-3 2-6 4-8 2 0 3-1 4-2l-113-113c-4 1-7 0-10-3l-101-101c-4-4-4-10 0-14l35-35c2-2 4-3 7-3 2 0 5 1 7 3l40 40c0 0 0 0 0 0l61 61c3 3 4 6 3 10l113 113c1-1 2-2 2-4 2-2 5-4 8-4 0 0 0 0 1 0 2 0 5 1 7 2l107 107c2 2 3 6 3 9-1 3-3 5-5 7-1 1-3 1-4 2l18 18 14 14c7-6 14-11 26-15 5-1 9 1 12 5 17 31 28 79 28 108 0 6-4 10-10 10z m-267-124c-2 2-5 3-7 3-1 0-1 0-2 0-3 0-6-2-7-5-7-13-11-26-14-40-16 7-33 11-51 12 3 46 24 90 59 120 31 26 69 40 109 40 1 0 2 0 2 0-4-18-4-37-2-55-13-3-26-7-39-14-3-1-5-4-5-7-1-3 0-7 2-9l44-43-45-46z m-164-338l-21 21 9 9 33-9z m37 38l-32 8 20 21 33-9z m37 36l-33 9 25 25 8-8 13-13z m24 31l-14 14 114 114c0 0 0 0 0 0 1-1 2-2 3-3 0 0 1 0 1 0 1-2 2-3 3-4 1-1 2-2 3-3 1 0 1-1 1-1 1-1 2-2 3-2 0-1 0-1 0-1z m138 115c0 2-1 3-2 4 0 0-1 0-1 1 0 0 0 0 0 0-1 1-1 1-1 1-1 2-2 3-3 4 0 0-1 1-1 2-1 1-2 2-3 3-1 0-1 1-1 1-2 2-3 3-5 4 0 0 0 0 0 0 0 0 0 0 0 0 0 0 0 0 0 0-1 2-2 3-4 5 0 0-1 1-2 1 0 1-1 2-2 3-1 0-2 1-2 1-1 1-2 2-3 3-1 0-1 1-2 1 0 0 0 0 0 0-1 0-1 1-1 1-1 1-2 2-4 3l90 89c1-1 2-3 3-4 0 0 0 0 0 0 0-1 0-1 0-1 1 0 1-1 1-1 1-1 2-3 3-4 1 0 1-1 1-1 1-1 2-2 3-3 1-1 1-1 2-2 1-1 2-3 4-4 0 0 0 0 0 0 0 0 0 0 0 0 1-2 3-3 4-4 1-1 1-1 2-2 1-1 2-2 3-2 0-1 1-1 1-2 1-1 2-2 4-2 0-1 1-1 1-2 0 0 0 0 1 0 0 0 0 0 0 0 1-1 3-2 4-3z m91 114c0 0 0 1 0 1-1 0-2 1-3 2 0 0 0 0-1 1-1 1-2 2-3 3 0 0 0 0 0 0-1 1-2 2-3 3-1 1-1 1-1 1-1 1-2 2-2 3 0 0-1 0-1 0l13 13 14-14z m72 27c-6 3-10 7-17 14l0 0c-2 2-5 3-7 3-3 0-5-1-7-3l-14-14-14 14 14 14c2 2 3 4 3 7 0 3-1 5-3 7l0 0c-7 7-11 11-14 17 24 12 57 20 81 22-2-24-10-57-22-81z"/>
<glyph glyph-name="pr" unicode="&#112;" d="M221 124c-11-6-28-11-37-4-9 6-12 22-12 33 10 0 21 4 34 10 5 2 7 8 4 13-2 5-8 7-13 5-12-6-28-11-38-5-12 9-12 35-11 44 0 5-4 10-9 11-6 1-11-3-11-9-1-4-4-45 20-62 1-1 2-2 4-2 0-14 1-42 20-55 7-4 14-7 23-7 10 0 22 4 35 10 5 2 7 8 5 13-3 5-9 7-14 5z m152 107c-5-1-9-6-9-11 1-9 1-35-11-44-10-6-26-1-38 5-5 2-11 0-13-5-3-5-1-11 4-13 13-6 24-10 34-10 0-11-3-27-12-33-9-7-26-2-37 4-5 2-11 0-14-5-2-5 0-11 5-13 13-7 25-10 35-10 9 0 16 3 23 7 19 13 20 41 20 55 2 0 3 1 4 2 24 17 21 58 20 62 0 6-5 10-11 9z m-117 117c-6 0-10-5-10-10l0 0c0-6 4-10 10-10 6 0 10 4 10 10l0 0c0 5-4 10-10 10z m0-259c-6 0-10-5-10-10l0 0c0-6 4-10 10-10 6 0 10 4 10 10l0 0c0 5-4 10-10 10z m-203 247c1 0 1 0 1 0 0 0 0 0 0 0 0 0 0 0-1 0z m413-10c0 0 0 0 0 1 0 0 0 0 0 0 0 0 0 0 0 0 0 0 0 0 0 1 0 0 0 0 0 0 0 0 0 0 0 0 0 0 0 0 0 1 0 0 0 0 0 0 0 0 0 0-1 0 0 0 0 0 0 1 0 0 0 0 0 0 0 0 0 0 0 0 0 0 0 0 0 0 0 0 0 1 0 1 0 0 0 0 0 0 0 0 0 0 0 0-1 0-1 0-1 0 0 1 0 1 0 1 0 0 0 0 0 0 0 0 0 0 0 0 0 0 0 0 0 1 0 0-1 0-1 0 0 0 0 0 0 0 0 0 0 0 0 0 0 0 0 0 0 0 0 0 0 1-1 1 0 0 0 0 0 0 0 0 0 0 0 0 0 0 0 0 0 0 0 0 0 0-1 0 0 0 0 1 0 1 0 0 0 0 0 0 0 0 0 0 0 0-1 0-1 0-1 0 0 0 0 0 0 0 0 0 0 0 0 0 0 0-1 0-1 0 0 0 0 0 0 0 0 1 0 1 0 1 0 0-1 0-1 0 0 0 0 0 0 0 0 0-9 3-19 20-11 19-25 59-25 136 0 0 0 0 0 0 0 1 0 1 0 1 0 0 0 0 0 1 0 0 0 0 0 0 0 0 0 0 0 1 0 0 0 0 0 0 0 0 0 0 0 1 0 0 0 0 0 0 0 0 0 0-1 0 0 1 0 1 0 1 0 0 0 0 0 0 0 0 0 1 0 1 0 0 0 0 0 0-1 0-1 0-1 1 0 0 0 0 0 0 0 0 0 0 0 0-1 0-1 0-1 0 0 1 0 1 0 1 0 0 0 0 0 0-1 0-1 0-1 0 0 1 0 1 0 1 0 0-1 0-1 0 0 0 0 0 0 0 0 0 0 0 0 0-1 0-1 0-1 1 0 0 0 0 0 0-19 8-40 10-71 10-6 0-10-4-10-10 0-47-32-86-71-86-39 0-71 39-71 86 0 6-4 10-10 10-31 0-52-2-71-10 0 0 0 0 0 0 0-1 0-1-1-1 0 0 0 0 0 0 0 0 0 0 0 0 0 0-1 0-1 0 0 0 0 0 0-1 0 0 0 0-1 0 0 0 0 0 0 0 0 0 0 0 0-1 0 0 0 0-1 0 0 0 0 0 0 0 0 0 0 0 0 0 0-1 0-1-1-1 0 0 0 0 0 0 0 0 0-1 0-1 0 0 0 0 0 0 0 0 0 0 0-1-1 0-1 0-1 0 0 0 0 0 0 0 0-1 0-1 0-1 0 0 0 0 0 0 0-1 0-1 0-1 0 0 0 0 0 0 0-1 0-1 0-1 0 0 0 0 0-1 0 0 0 0 0 0 0-139-43-156-44-156 0 0 0 0 0 0l0 0c0 0 0 0 0 0 0 0 0 0 0 0 0 0-1 0-1 0 0 0 0 0 0 0 0 0 0-1 0-1 0 0-1 0-1 0 0 0 0 0 0 0 0 0 0 0-1 0 0 0 0 0 0 0 0 0 0-1 0-1-1 0-1 0-1 0 0 0 0 0 0 0 0 0 0 0-1 0 0-1 0-1 0-1 0 0 0 0 0 0 0 0 0 0-1-1 0 0 0 0 0 0 0 0 0 0 0 0 0 0 0-1 0-1-1 0-1 0-1 0 0 0 0 0 0-1 0 0 0 0 0 0 0 0 0 0 0 0 0-1 0-1 0-1-1 0-1 0-1 0 0 0 0-1 0-1 0 0 0 0 0 0 0 0 0-1 0-1 0 0 0 0 0 0 0 0 0-1 0-1 0 0 0 0 0 0 0-86 25-140 47-188 14-31 26-58 28-88 1-5 5-9 10-9 26 0 41-9 57-19 17-10 36-22 68-22 32 0 51 12 68 22 16 10 31 19 57 19 5 0 9 4 10 9 2 30 14 57 28 88 22 48 47 102 47 188 0 0 0 0 0 0z m-65-180c-13-28-25-56-29-85-27-2-44-13-59-22-14-8-27-16-47-19l0 30c0 6-4 10-10 10 0 0 0 0 0 0-6 0-10-4-10-10l0-30c-20 3-33 11-47 19-15 9-32 20-59 22-4 29-16 57-29 85-17 36-35 76-42 130 4-3 8-7 13-11 21-14 47-21 80-21 27 0 59 5 94 14 35-9 67-14 94-14 33 0 59 7 80 21 5 4 9 8 13 11-7-54-25-94-42-130z m17 135c-31-21-83-23-152-5l0 33c0 5-4 10-10 10 0 0 0 0 0 0-6 0-10-5-10-10l0-33c-69-18-121-16-152 5-18 13-25 30-27 39 6 4 15 12 23 26 18 30 27 77 28 140 13 4 27 6 47 6 5-54 44-96 91-96 47 0 86 42 91 96 20 0 34-2 47-6 1-63 10-110 28-140 8-14 17-22 23-26-2-9-9-26-27-39z"/>
<glyph glyph-name="daga" unicode="&#113;" d="M509 509c-2 3-6 4-10 3-28-8-108-48-179-96-39-25-72-50-94-72-29-28-42-51-40-70l2-25c-18-6-37-17-56-32 0 0 0 0 0 0-7-5-13-11-20-18-25-24-43-52-51-77l-32 0c-8 0-15-3-21-9-5-5-8-12-8-20l0-64c0-8 3-15 8-21 6-5 13-8 21-8l64 0c0 0 0 0 0 0 8 0 15 3 20 8 6 6 9 13 9 21l0 32c25 8 53 26 77 51 13 13 25 28 34 42 0 0 0 0 0 0 0 0 0 1 0 1 7 11 12 22 16 33l18-2 7 0c2-1 3-1 4-1 19 0 41 14 68 43 22 22 46 54 71 92 44 65 85 144 95 179 1 4 0 8-3 10z m-410-486c-2-2-4-3-6-3l0-10 0 10-64 0c-3 0-5 1-6 3-2 1-3 3-3 6l0 64c0 2 1 4 3 6 1 2 3 2 5 3 2-6 4-12 8-17-7-12-8-29-1-45 1-2 3-4 5-5 8-3 15-5 23-5 8 0 16 2 22 6 5-4 11-7 17-8-1-2-1-4-3-5z m3 26c-4 2-7 4-10 7-2 2-4 3-7 3-2 0-5-1-7-3-5-5-11-6-15-6-4 0-7 1-11 2-3 10-2 20 4 26 4 4 4 10 0 14-3 3-5 6-7 10l15 0 38-38z m12 30l-35 35c3 8 7 16 11 24l65-37c-13-10-27-17-41-22z m58 35l-71 41c11 15 24 30 38 42l71-41c-10-15-24-29-38-42z m49 59l-65 37c13 9 27 16 40 21l35-35c-3-8-6-15-10-23z m42 68c-2-2-3-5-3-7 0-3 1-6 3-7 6-6 8-14 6-21l-22 2-39 39-2 22c2 0 4 1 5 1 6 0 11-3 16-7 4-4 10-4 14 0 8 8 18 12 29 12 2 0 3 0 5 0 2-12-3-25-12-34z m138 90c-25-37-48-68-69-90-19-20-33-29-43-33 1 9-1 18-6 25 10 14 14 31 12 47l32 33c4 4 4 10 0 14-4 4-10 4-14 0l-33-32c-3 0-6 0-10 0-13 0-26-4-37-12-6 4-14 7-22 7-1 0-2-1-3-1 4 9 13 23 32 41 21 20 53 45 91 70 56 37 119 71 155 86-15-36-47-97-85-155z m-68 2c2-2 4-3 7-3 3 0 5 1 7 3l0 0c4 4 4 10 0 14-4 4-10 4-14 0l0 0c-4-4-4-10 0-14z"/>
<glyph glyph-name="atmospheric" unicode="&#114;" d="M496 410c-19 40-57 62-106 62-50 0-87-22-106-62-25-51-11-117 17-151 6-8 18-10 26-3 8 6 9 18 3 26-20 25-30 76-13 112 13 27 37 41 73 41 35 0 60-14 72-41 18-36 8-87-12-112-7-8-5-20 3-26 3-3 7-4 11-4 6 0 11 2 15 7 28 34 42 100 17 151z m-106-177c-18 0-33 23-33 7 0-17 15-30 33-30 18 0 32 13 32 30 0 16-14-7-32-7z m-271 73c-50 0-87-22-106-62-25-51-11-117 17-151 6-8 18-10 26-3 8 6 9 18 3 26-20 25-30 76-13 112 13 27 37 40 73 40 35 0 60-13 72-40 18-36 8-87-12-112-7-8-5-20 3-26 3-3 7-4 11-4 6 0 11 2 15 7 28 34 42 100 17 151-19 40-57 62-106 62z m0-240c-18 0-33 24-33 8 0-17 15-31 33-31 18 0 32 14 32 31 0 16-14-8-32-8z"/>
<glyph glyph-name="thunder" unicode="&#115;" d="M306 334c-3-3-3-9 0-12 3-3 9-3 12 0 3 3 3 9 0 12-3 3-9 3-12 0z m78 2l-40 0c-4 0-8-4-8-8 0-4 4-8 8-8l21 0-83-82c-5-5-1-14 6-14l61 0-159-159 73 115c3 5-1 12-7 12l-77 0 67 66c5 5 1 14-6 14l-94 0 153 163-66-103c-3-5 1-12 7-12l40 0c4 0 8 4 8 8 0 4-4 8-8 8l-25 0 104 164c2 3 1 8-2 10-3 3-8 2-11-1l-224-240c-5-5-1-13 6-13l93 0-67-66c-5-5-1-14 6-14l81 0-104-164c-5-8 6-16 13-10l224 224c5 5 1 14-6 14l-61 0 83 82c5 5 1 14-6 14z m-22-146l-168-160c-3-3-3-8 0-11 3-4 8-4 12-1l168 160c3 3 3 8 0 12-3 3-8 3-12 0z m-218 130c2 0 4 1 6 2l152 160c3 4 3 9 0 12-4 3-9 3-12 0l-152-160c-5-6-1-14 6-14z"/>
<glyph glyph-name="ship" unicode="&#116;" d="M144 98c-3 4-8 5-12 3-4-2-5-7-3-12l51-85c2-3 5-4 8-4 3 0 6 2 7 4 2 3 2 6 0 9z m51 0c-1 3-4 5-7 5-4-1-6-2-8-5-1-3-1-6 0-9l52-85c1-3 4-4 7-4 3 0 6 2 8 4 1 3 1 6-1 9z m51 0c-2 4-7 5-11 3-4-2-6-7-3-12l51-85c1-3 4-4 7-4 3 0 6 2 8 4 1 3 1 6-1 9z m51 0c-1 3-4 5-7 5-3-1-6-2-7-5-2-3-2-6 0-9l51-85c2-3 4-4 8-4 3 0 5 2 7 4 1 3 1 6 0 9z m52 0c-3 4-8 5-12 3-4-2-5-7-3-12l51-85c2-3 5-4 8-4 3 0 6 2 7 4 2 3 1 6 0 9z m103 158c-4 0-8-4-8-9 0-4 4-8 8-8 24 0 43-19 43-43 0-23-19-42-43-42l-6 0c-30 15-49 44-53 76l7 0c1 0 3 1 4 3 0 1 0 3-1 4-29 34-45 77-45 121 0 48 18 94 52 128l-145 0 0 17c0 5-4 9-9 9-5 0-9-4-9-9l0-17c-134 0-127 1-129-1-32-34-50-79-50-127 0-43 15-85 43-119 0-1-1-59-29-85l-22 0c-24 0-43 19-43 42 0 5-4 9-8 9-5 0-9-4-9-9 0-32 25-58 57-59 6-4 28-18 28-43 0-23-38-39-53-43-4-1-7-5-6-10 0-4 4-7 8-7l109 0-28 47c-5 8-6 17-1 26 4 8 13 13 22 13 9 0 18-5 22-13l5-7c2 10 11 18 21 19 10 2 20-3 26-12l4-7c2 10 11 18 21 19 10 2 20-3 26-12l4-7c3 10 11 18 21 19 10 2 21-3 26-12l4-7c3 10 11 18 21 19 11 2 21-3 26-12l5-7c2 10 10 18 21 19 10 2 20-3 25-12l32-53c41 25 66 69 66 117l0 25c0 33-27 60-60 60z m-348-102c18 25 23 60 24 76l119 0 0-76z m161 0l0 76 111 0c3-29 17-57 39-76z m135-56c-2 3-5 5-8 5-3-1-6-2-7-5-2-3-1-6 0-9l51-85c2-3 5-4 8-4 3 0 6 2 7 4 2 3 2 6 0 9z"/>
</font>
</defs>
</svg>
